<svg xmlns="http://www.w3.org/2000/svg" viewBox="0 0 32 40" x="0px" y="0px"><title>Home</title><g><path d="M30.65,13.24l-14-12a1,1,0,0,0-1.3,0l-14,12a1,1,0,1,0,1.3,1.52L16,3.32,29.35,14.76a1,1,0,1,0,1.3-1.52Z"/><path d="M27,14a1,1,0,0,0-1,1V26a3,3,0,0,1-3,3H9a3,3,0,0,1-3-3V15a1,1,0,0,0-2,0V26a5,5,0,0,0,5,5H23a5,5,0,0,0,5-5V15A1,1,0,0,0,27,14Z"/></g><text x="0" y="47" fill="#000000" font-size="5px" font-weight="bold" font-family="'Helvetica Neue', Helvetica, Arial-Unicode, Arial, Sans-serif">Created by Noor Hakim</text><text x="0" y="52" fill="#000000" font-size="5px" font-weight="bold" font-family="'Helvetica Neue', Helvetica, Arial-Unicode, Arial, Sans-serif">from the Noun Project</text></svg>